<?xml version="1.0" encoding="utf-8"?>
<svg version="1.1" id="Layer_1" xmlns="http://www.w3.org/2000/svg" xmlns:xlink="http://www.w3.org/1999/xlink" x="0px" y="0px"
	 viewBox="0 0 24 24" style="enable-background:new 0 0 24 24;" xml:space="preserve">
<style type="text/css">
	.st0{fill:#0066FF;}
	.st1{fill:#FFFFFF;}
</style>
<g>
	<path id="Background_Color" class="st0" d="M18.2,6H5.8C2.6,6,0,8.6,0,12s2.6,6,5.8,6h12.5c3.2,0,5.8-2.6,5.8-6S21.4,6,18.2,6z"/>
	<path id="Overlay_Right" class="st1" d="M18.2,12l1.8-1.9c0.2-0.2,0.2-0.5,0-0.7c-0.2-0.2-0.5-0.2-0.6,0l-1.8,1.9l-1.8-1.9
		c-0.2-0.2-0.5-0.2-0.6,0c-0.2,0.2-0.2,0.5,0,0.7l1.8,1.9L15,13.9c-0.2,0.2-0.2,0.5,0,0.7c0.2,0.2,0.5,0.2,0.6,0l1.8-1.9l1.8,1.9
		c0.2,0.2,0.5,0.2,0.6,0c0.2-0.2,0.2-0.5,0-0.7L18.2,12z"/>
	<path class="st1" d="M1,12c0,2.7,2.2,5,4.8,5h5.6L13.9,7H5.8C3.1,7,1,9.3,1,12z"/>
	<path class="st0" d="M9.4,9.5c0.2-0.2,0.5-0.2,0.7,0c0.2,0.2,0.2,0.5,0.1,0.7l-3.4,4.2c-0.1,0.1-0.2,0.2-0.2,0.2
		c-0.2,0.1-0.4,0.1-0.6-0.1l-1.8-1.9c-0.2-0.2-0.2-0.5,0-0.6s0.5-0.2,0.6,0l1.4,1.4L9.4,9.5z"/>
</g>
</svg>
